<svg preserveAspectRatio="none" width="100%" height="100%" overflow="visible" style="display: block;" viewBox="0 0 32 32" fill="none" xmlns="http://www.w3.org/2000/svg">
<g id="Logo" clip-path="url(#clip0_0_7621)">
<path id="Vector" d="M29.8528 8C28.4485 5.56788 26.4287 3.54826 23.9964 2.14409C21.5642 0.739932 18.8052 0.000703969 15.9968 0.000703969C13.1884 0.000703969 10.4294 0.739932 7.99715 2.14409C5.56493 3.54826 3.54515 5.56788 2.1408 8L3.1008 25.28L29.8528 8Z" fill="var(--fill-0, #DB3559)"/>
<path id="Vector_2" d="M9.072 20L2.144 8C0.739724 10.4323 0.000424296 13.1913 0.000406458 15.9999C0.00038862 18.8085 0.739653 21.5675 2.1439 23.9998C3.54814 26.4321 5.56789 28.4519 8.00014 29.8563C10.4324 31.2606 13.1914 31.9999 16 32L31.68 16L9.072 20Z" fill="url(#paint0_linear_0_7621)"/>
<path id="Vector_3" d="M22.928 20L16 32C18.8083 31.9994 21.5669 31.2596 23.9987 29.8551C26.4305 28.4505 28.4498 26.4306 29.8537 23.9984C31.2576 21.5662 31.9966 18.8074 31.9964 15.9991C31.9962 13.1908 31.2569 10.432 29.8528 8H16L22.928 20Z" fill="url(#paint1_linear_0_7621)"/>
<path id="Vector_4" d="M16 24C17.0506 24 18.0909 23.7931 19.0615 23.391C20.0321 22.989 20.914 22.3997 21.6569 21.6569C22.3997 20.914 22.989 20.0321 23.391 19.0615C23.7931 18.0909 24 17.0506 24 16C24 14.9494 23.7931 13.9091 23.391 12.9385C22.989 11.9679 22.3997 11.086 21.6569 10.3431C20.914 9.60028 20.0321 9.011 19.0615 8.60896C18.0909 8.20693 17.0506 8 16 8C13.8783 8 11.8434 8.84285 10.3431 10.3431C8.84285 11.8434 8 13.8783 8 16C8 18.1217 8.84285 20.1566 10.3431 21.6569C11.8434 23.1571 13.8783 24 16 24Z" fill="var(--fill-0, white)"/>
<path id="Vector_5" d="M16 22.336C16.8321 22.336 17.656 22.1721 18.4247 21.8537C19.1934 21.5353 19.8919 21.0686 20.4802 20.4802C21.0686 19.8919 21.5353 19.1934 21.8537 18.4247C22.1721 17.656 22.336 16.8321 22.336 16C22.336 15.1679 22.1721 14.344 21.8537 13.5753C21.5353 12.8066 21.0686 12.1081 20.4802 11.5198C19.8919 10.9314 19.1934 10.4647 18.4247 10.1463C17.656 9.82789 16.8321 9.664 16 9.664C14.3196 9.664 12.708 10.3315 11.5198 11.5198C10.3315 12.708 9.664 14.3196 9.664 16C9.664 17.6804 10.3315 19.292 11.5198 20.4802C12.708 21.6685 14.3196 22.336 16 22.336V22.336Z" fill="var(--fill-0, #1A73E8)"/>
</g>
<defs>
<linearGradient id="paint0_linear_0_7621" x1="17.7312" y1="30.9984" x2="3.8752" y2="6.9984" gradientUnits="userSpaceOnUse">
<stop stop-color="#1E8E3E"/>
<stop offset="1" stop-color="#34A853"/>
</linearGradient>
<linearGradient id="paint1_linear_0_7621" x1="13.664" y1="32" x2="27.52" y2="8.0416" gradientUnits="userSpaceOnUse">
<stop stop-color="#FCC934"/>
<stop offset="1" stop-color="#FBBC04"/>
</linearGradient>
<clipPath id="clip0_0_7621">
<rect width="32" height="32" fill="white"/>
</clipPath>
</defs>
</svg>
