<svg xmlns="http://www.w3.org/2000/svg" viewBox="0 0 24 24" width="24" height="24">
  <defs>
    <clipPath id="us-circle"><circle cx="12" cy="12" r="12"/></clipPath>
  </defs>
  <g clip-path="url(#us-circle)">
    <rect width="24" height="24" fill="#fff"/>
    <g fill="#b22234">
      <rect y="0" width="24" height="1.85"/>
      <rect y="3.69" width="24" height="1.85"/>
      <rect y="7.38" width="24" height="1.85"/>
      <rect y="11.08" width="24" height="1.85"/>
      <rect y="14.77" width="24" height="1.85"/>
      <rect y="18.46" width="24" height="1.85"/>
      <rect y="22.15" width="24" height="1.85"/>
    </g>
    <rect width="11" height="12.92" fill="#3c3b6e"/>
    <g fill="#fff">
      <circle cx="2" cy="2.2" r="0.7"/>
      <circle cx="5.5" cy="2.2" r="0.7"/>
      <circle cx="9" cy="2.2" r="0.7"/>
      <circle cx="3.75" cy="4.5" r="0.7"/>
      <circle cx="7.25" cy="4.5" r="0.7"/>
      <circle cx="2" cy="6.8" r="0.7"/>
      <circle cx="5.5" cy="6.8" r="0.7"/>
      <circle cx="9" cy="6.8" r="0.7"/>
      <circle cx="3.75" cy="9.1" r="0.7"/>
      <circle cx="7.25" cy="9.1" r="0.7"/>
      <circle cx="2" cy="11.4" r="0.7"/>
      <circle cx="5.5" cy="11.4" r="0.7"/>
      <circle cx="9" cy="11.4" r="0.7"/>
    </g>
  </g>
</svg>
