<svg preserveAspectRatio="none" width="100%" height="100%" overflow="visible" style="display: block;" viewBox="0 0 40.8164 16" fill="none" xmlns="http://www.w3.org/2000/svg">
<g id="Vector">
<path d="M7.46182 15.9986C9.82282 15.9986 11.7617 15.1767 13.0267 13.2378V15.5569H15.6184V9.71798C15.6184 8.34807 14.8803 7.75817 13.4894 7.75817H8.34667V8.93797C8.34667 9.95003 8.89464 10.3498 9.82142 10.3498H11.6974C11.4024 11.9098 9.9696 13.0687 7.98742 13.0687C5.58448 13.0687 3.66661 11.1089 3.66661 8.00979C3.66661 5.249 5.33147 3.03617 8.28237 3.03617C8.91421 3.03617 9.42023 3.14101 9.88433 3.33112C10.4742 3.56317 10.7692 3.83715 11.2123 4.25791C11.5911 4.63673 11.8861 4.91071 12.6241 4.91071H15.2382C14.7112 1.81303 11.5282 0 8.24043 0C3.39263 0 0 3.70994 0 8.36764C0 13.0701 3.73091 15.9986 7.46182 15.9986Z" fill="var(--fill-0, white)"/>
<path d="M27.833 9.88712C27.833 6.5574 25.5572 4.38651 22.3952 4.38651C19.2123 4.38651 16.6207 6.83138 16.6207 10.3093C16.6207 13.8291 19.1075 16 22.3323 16C24.3774 16 26.3372 15.0732 27.285 13.4293C27.032 13.2182 26.8628 13.0924 26.6741 12.9652C26.3163 12.7122 26.0003 12.5654 25.5782 12.5654C25.1784 12.5654 24.8192 12.7975 24.3774 13.0924C23.8924 13.4084 23.2605 13.5775 22.6706 13.5775C21.2797 13.5775 19.9727 12.7555 19.7617 11.0697H27.7491C27.812 10.8349 27.833 10.203 27.833 9.88712ZM24.671 8.9813H19.8022C20.0342 7.56946 21.003 6.68461 22.3309 6.68461C23.6589 6.68461 24.671 7.59042 24.671 8.96034V8.9813Z" fill="var(--fill-0, white)"/>
<path d="M28.8548 15.5569H31.9958V9.90809C31.9958 8.07409 32.9016 6.93622 34.4197 6.93622C35.6428 6.93622 36.4858 7.54709 36.4858 9.08614V14.0807C36.4858 15.0285 36.9289 15.5778 37.9829 15.5555H39.6268V8.72689C39.6268 5.77599 38.0667 4.38511 35.6219 4.38511C34.3568 4.38511 33.472 4.76394 32.7339 5.41814C32.3341 5.75502 32.2279 5.86126 32.0601 5.86126C31.8071 5.86126 31.7232 5.67115 31.596 5.46147C31.2801 4.93447 30.816 4.7234 29.9102 4.7234H28.8562V15.5569H28.8548Z" fill="var(--fill-0, white)"/>
<path d="M39.8155 4.38931V4.55426H39.5709V5.3762H39.3821V4.55426H39.1417V4.38931H39.8155Z" fill="var(--fill-0, white)"/>
<path d="M39.9525 5.3748V4.38931H40.2097L40.3802 5.03372L40.555 4.38931H40.8164V5.3748H40.6584V4.60178H40.6528L40.4543 5.3748H40.3145L40.1118 4.60178H40.109V5.3748H39.9525Z" fill="var(--fill-0, white)"/>
</g>
</svg>
