<svg xmlns="http://www.w3.org/2000/svg" viewBox="0 0 148 24" fill="#1c222e">
  <g transform="translate(0,4)">
    <rect width="7" height="7"/><rect x="9" width="7" height="7"/>
    <rect y="9" width="7" height="7"/><rect x="9" y="9" width="7" height="7"/>
  </g>
  <path transform="translate(30,3)" d="M12 6.2c-1 0-1.9.6-2.9.6S7.2 6.2 6.2 6.2C4.3 6.2 2 8.2 2 11.4c0 3.2 2.3 7.3 4.2 7.3.9 0 1.3-.6 2.6-.6s1.7.6 2.6.6c2 0 4.2-4.2 4.2-6.3-2.2-1.1-2.2-4 0-5.2-1-1.2-2.4-1-3.8-1zM11 3.2c1.1-1.1 1-2.6 1-3.2-1.1.1-2.4.8-3.1 1.7-.7.9-1 2.3-.9 3 1.2.1 2-.4 3-1.5z"/>
  <g transform="translate(56,4)">
    <rect x="1.5" y="6" width="15" height="10" rx="2"/>
    <path d="M3 1.5l2.4 3.4M15 1.5l-2.4 3.4" stroke="#1c222e" stroke-width="1.4" fill="none"/>
    <circle cx="5.2" cy="10" r="1.1" fill="#ffffff"/><circle cx="12.8" cy="10" r="1.1" fill="#ffffff"/>
  </g>
  <path transform="translate(82,3)" d="M9 0C4 0 0 4 0 9s4 9 9 9 9-4 9-9-4-9-9-9zm0 2.4A6.6 6.6 0 1 1 2.4 9 6.6 6.6 0 0 1 9 2.4zM9 4v5l3.5 2-1 1.6L7 10V4z"/>
  <g transform="translate(108,4)">
    <rect x="0.5" y="1" width="24" height="15" rx="2" fill="none" stroke="#1c222e" stroke-width="1.6"/>
    <path d="M8 19h9M12.5 16v3" stroke="#1c222e" stroke-width="1.6" fill="none"/>
  </g>
</svg>
