<svg xmlns="http://www.w3.org/2000/svg" viewBox="0 0 128 24" fill="#008941">
  <g>
    <path d="M12 2l2.9 6.2 6.8.6-5.1 4.5 1.5 6.7L12 16.9 5.9 20.5l1.5-6.7L2.3 8.8l6.8-.6z"/>
    <path d="M38 2l2.9 6.2 6.8.6-5.1 4.5 1.5 6.7L38 16.9 31.9 20.5l1.5-6.7-5.1-4.5 6.8-.6z"/>
    <path d="M64 2l2.9 6.2 6.8.6-5.1 4.5 1.5 6.7L64 16.9 57.9 20.5l1.5-6.7-5.1-4.5 6.8-.6z"/>
    <path d="M90 2l2.9 6.2 6.8.6-5.1 4.5 1.5 6.7L90 16.9 83.9 20.5l1.5-6.7-5.1-4.5 6.8-.6z"/>
    <path d="M116 2l2.9 6.2 6.8.6-5.1 4.5 1.5 6.7L116 16.9l-6.1 3.6 1.5-6.7-5.1-4.5 6.8-.6z"/>
  </g>
</svg>
