<svg width="548" height="274" viewBox="0 0 548 274" fill="none" xmlns="http://www.w3.org/2000/svg">
<g id="Illustration">
<g id="Vector">
</g>
<path id="Vector_2" d="M260.892 197.027C246.864 197.032 232.96 196.981 219.058 197.076C214.83 197.105 212.447 194.151 211.824 191.461C211.564 190.342 211.62 189.124 211.681 187.959C211.833 185.066 212.06 182.178 212.275 179.289C212.7 173.552 213.165 167.819 213.561 162.081C213.844 157.976 214.019 153.864 214.283 149.758C214.574 145.232 214.937 140.711 215.223 136.186C215.653 129.355 216.024 122.52 216.457 115.69C216.715 111.626 217.057 107.567 217.333 103.504C217.569 100.026 217.856 96.5487 217.952 93.0664C218.045 89.7444 221.378 86.666 224.68 86.7127C233.037 86.831 241.397 86.7361 249.755 86.7269C250.007 86.7266 250.262 86.7085 250.511 86.7363C251.278 86.822 251.661 86.4607 251.859 85.7384C252.372 83.8654 253.15 82.1015 254.205 80.4681C257.8 74.9038 262.772 71.2469 269.203 69.5591C274.449 68.1822 279.551 68.6611 284.471 70.7904C288.767 72.6501 292.204 75.603 294.763 79.5658C296.048 81.5563 297.081 83.6514 297.78 85.9091C297.942 86.4328 298.235 86.6854 298.765 86.6934C299.101 86.6984 299.437 86.7057 299.773 86.7062C308.047 86.7177 316.322 86.7445 324.596 86.7251C326.158 86.7214 327.469 87.2287 328.633 88.2089C330.181 89.5129 331.121 91.1604 331.253 93.1935C331.547 97.7605 331.784 102.331 332.076 106.898C332.35 111.171 332.683 115.439 332.959 119.712C333.186 123.231 333.354 126.755 333.572 130.275C333.845 134.674 334.152 139.071 334.423 143.471C334.58 146.027 334.675 148.587 334.835 151.143C335.188 156.757 335.565 162.369 335.931 167.983C336.285 173.428 336.635 178.874 336.989 184.32C337.111 186.204 337.313 188.088 337.347 189.974C337.402 193.094 335.802 195.479 332.897 196.626C332.139 196.925 331.268 197.067 330.448 197.067C317.428 197.076 304.407 197.044 291.387 197.032C281.264 197.023 271.141 197.028 260.892 197.027ZM296.011 87.5302C295.093 84.5385 293.832 81.724 291.891 79.2336C288.036 74.2882 282.955 71.5203 276.759 70.9773C271.236 70.4934 266.239 72.0548 261.746 75.3554C258.247 77.9251 255.772 81.1978 254.299 85.2582C253.999 86.0865 253.689 86.9114 253.381 87.7371C253.101 88.4896 252.562 88.8804 251.754 88.8856C251.418 88.8878 251.082 88.8905 250.746 88.8897C242.05 88.8684 233.355 88.8453 224.659 88.8261C222.27 88.8209 220.315 90.6109 220.137 92.9908C219.82 97.2207 219.5 101.451 219.222 105.683C218.845 111.424 218.498 117.166 218.153 122.908C217.888 127.31 217.652 131.713 217.388 136.115C217.202 139.216 217.007 142.317 216.787 145.416C216.521 149.143 216.208 152.867 215.944 156.594C215.606 161.369 215.291 166.146 214.975 170.923C214.583 176.83 214.198 182.738 213.819 188.647C213.785 189.19 213.77 189.743 213.825 190.283C214.021 192.213 214.872 193.769 216.718 194.525C217.504 194.847 218.431 194.93 219.295 194.937C223.832 194.972 228.369 194.945 232.905 194.946C256.597 194.947 280.289 194.95 303.981 194.954C312.761 194.956 321.54 194.948 330.32 194.974C332.573 194.981 334.088 193.932 334.895 191.903C335.163 191.229 335.222 190.42 335.182 189.684C334.949 185.45 334.651 181.22 334.388 176.988C334.101 172.377 333.839 167.765 333.547 163.155C333.192 157.539 332.815 151.924 332.454 146.309C331.974 138.849 331.494 131.39 331.025 123.93C330.743 119.445 330.496 114.957 330.208 110.473C329.933 106.198 329.631 101.926 329.33 97.6537C329.212 95.9804 329.137 94.2994 328.913 92.6393C328.593 90.2639 326.344 88.7738 324.297 88.8423C320.772 88.9603 317.241 88.8799 313.712 88.8808C308.587 88.8822 303.462 88.8752 298.338 88.8879C297.357 88.8903 296.476 88.7763 296.011 87.5302Z" fill="var(--fill-0, #008941)"/>
<path id="Vector_3" d="M479.134 25.7801C480.403 25.901 481.166 26.5545 481.617 27.5946C482.067 28.6341 482.476 29.6915 482.925 30.7312C483.368 31.7553 483.642 31.8799 484.763 31.8626C488.078 31.8113 491.393 31.7722 494.709 31.7629C495.374 31.761 496.052 31.8603 496.704 32.002C498.251 32.3381 499.188 33.3904 499.36 34.9621C499.424 35.5441 499.411 36.1361 499.411 36.7235C499.414 46.8841 499.416 57.0448 499.408 67.2055C499.408 67.7478 499.39 68.3041 499.273 68.83C498.892 70.5451 497.762 71.4942 496.009 71.6315C495.675 71.6577 495.338 71.6543 495.002 71.6544C478.417 71.6585 461.833 71.6667 445.248 71.6471C444.515 71.6462 443.729 71.5136 443.061 71.226C441.768 70.6692 441.058 69.6639 441.071 68.1661C441.101 64.8075 441.068 61.4484 441.066 58.0895C441.064 50.9099 441.064 43.7302 441.066 36.5505C441.066 36.0469 441.055 35.5406 441.1 35.0401C441.249 33.3784 442.262 32.2571 443.899 31.933C444.351 31.8436 444.813 31.7482 445.27 31.7491C448.586 31.7552 451.902 31.7664 455.217 31.8179C456.388 31.8361 456.7 31.7117 457.154 30.651C457.567 29.6867 457.964 28.7157 458.358 27.7435C458.89 26.4313 459.867 25.7767 461.272 25.7366C461.398 25.7331 461.523 25.7129 461.649 25.7133C467.442 25.7323 473.236 25.7528 479.134 25.7801ZM477.007 60.7118C472.902 63.9124 467.053 63.5422 463.757 61.2678C462.83 60.6285 461.933 59.9002 461.178 59.0713C460.452 58.2744 459.809 57.3506 459.346 56.3794C458.866 55.3722 458.513 54.261 458.35 53.1589C458.185 52.0508 458.201 50.8799 458.364 49.7699C458.521 48.7055 458.876 47.643 459.314 46.655C459.758 45.6532 460.41 44.7436 461.077 43.6144C460.513 43.5599 460.158 43.4966 459.802 43.4954C454.845 43.478 449.887 43.4686 444.93 43.4596C444.636 43.4591 444.308 43.3993 444.058 43.5094C443.792 43.6267 443.525 43.8766 443.4 44.1368C443.282 44.3802 443.339 44.7129 443.339 45.0063C443.334 52.3582 443.331 59.7101 443.329 67.062C443.329 67.356 443.322 67.6522 443.354 67.9434C443.447 68.7788 443.855 69.2255 444.691 69.3743C445.019 69.4326 445.36 69.4233 445.696 69.4233C461.366 69.425 477.036 69.424 492.706 69.4246C493.462 69.4247 494.218 69.4457 494.974 69.44C496.677 69.427 497.111 68.985 497.127 67.2461C497.133 66.5741 497.105 65.9019 497.105 65.2298C497.105 58.4661 497.109 51.7024 497.108 44.9387C497.108 43.6732 496.957 43.4696 495.8 43.4668C490.591 43.4539 485.381 43.4623 480.172 43.4774C479.87 43.4783 479.569 43.606 479.065 43.7206C479.387 44.2256 479.599 44.565 479.818 44.8997C481.65 47.7031 482.333 50.694 481.516 54.0172C480.841 56.7605 479.316 58.8782 477.007 60.7118ZM457.911 33.6282C457.301 33.7428 456.692 33.9461 456.08 33.9562C453.896 33.9921 451.711 33.9598 449.527 33.9584C447.973 33.9574 446.418 33.9412 444.864 33.9771C443.96 33.998 443.421 34.3984 443.389 35.2075C443.319 36.9685 443.351 38.734 443.366 40.4976C443.37 41.0556 443.719 41.3201 444.267 41.3266C444.561 41.3301 444.855 41.3319 445.149 41.3302C449.937 41.3017 454.725 41.2544 459.512 41.2596C460.422 41.2606 461.34 41.4299 462.24 41.597C462.747 41.6912 463.132 41.6478 463.479 41.2451C464.152 40.4638 465.026 40.1365 466.049 40.1254C466.677 40.1186 467.312 40.094 467.931 39.9961C470.271 39.6254 472.542 39.8591 474.714 40.7996C475.626 41.1947 476.543 41.3706 477.526 41.3439C479.248 41.2972 480.97 41.2553 482.692 41.2607C486.933 41.2738 491.174 41.3152 495.415 41.3439C495.709 41.3459 496.005 41.3548 496.297 41.3308C496.78 41.291 497.092 41.0285 497.098 40.5304C497.115 38.8085 497.149 37.0852 497.098 35.3647C497.074 34.5213 496.571 34.0781 495.739 33.9794C495.366 33.935 494.984 33.9526 494.606 33.9532C491.036 33.9586 487.464 33.9392 483.894 33.987C482.494 34.0057 481.566 33.4459 481.054 32.1566C480.698 31.2592 480.276 30.3835 479.981 29.4667C479.603 28.29 478.895 27.8623 477.64 27.878C472.768 27.939 467.894 27.8937 463.021 27.9019C460.568 27.906 460.836 27.7599 459.845 30.0663C459.337 31.2502 458.661 32.3626 457.911 33.6282ZM461.784 56.0425C464.159 59.7844 467.553 61.298 471.896 60.5206C475.416 59.8904 477.891 57.7852 478.997 54.4383C480.769 49.0726 477.793 43.8853 472.587 42.51C468.01 41.3008 463.123 43.5003 461.318 47.8461C460.211 50.5101 460.328 53.259 461.784 56.0425Z" fill="var(--fill-0, #697284)"/>
<path id="Vector_4" d="M490.936 152.476C490.944 151.389 490.929 150.422 490.964 149.457C491.013 148.09 491.459 147.66 492.819 147.643C494.036 147.628 495.254 147.649 496.472 147.637C496.874 147.633 497.276 147.577 497.995 147.52C497.574 147.135 497.415 146.904 497.195 146.8C492.986 144.814 491.043 141.422 490.992 136.849C490.982 136.051 490.979 135.253 490.99 134.455C491.01 133.036 491.373 132.665 492.792 132.664C497.705 132.661 502.619 132.669 507.533 132.672C509.339 132.673 511.145 132.656 512.951 132.675C514.353 132.69 514.793 133.09 514.833 134.446C514.9 136.711 514.967 138.97 514.09 141.149C513.177 143.42 511.738 145.19 509.591 146.377C509.171 146.609 508.761 146.858 508.346 147.1C508.363 147.202 508.379 147.305 508.396 147.408C508.685 147.487 508.974 147.633 509.264 147.634C511.238 147.639 513.22 147.721 515.183 147.571C517.403 147.401 519.336 146.582 520.472 144.458C520.908 143.644 520.996 142.789 520.997 141.9C521.005 137.364 521.008 132.828 521.028 128.293C521.034 127.034 521.114 125.775 521.118 124.516C521.122 123.408 520.891 123.158 519.805 123.146C517.58 123.122 515.353 123.154 513.128 123.127C512.404 123.119 511.929 123.38 511.648 124.047C511.403 124.627 511.109 125.185 510.857 125.761C510.493 126.592 509.874 126.983 508.967 126.925C508.716 126.908 508.463 126.925 508.211 126.917C507.505 126.895 507.129 127.215 507.031 127.932C506.982 128.295 506.84 128.662 506.667 128.988C506.366 129.554 505.87 129.859 505.215 129.778C504.538 129.695 504.049 129.328 503.809 128.674C503.751 128.518 503.741 128.345 503.696 128.184C503.392 127.099 503.188 126.94 502.01 126.903C501.507 126.887 501.001 126.87 500.499 126.897C499.576 126.947 498.986 126.502 498.621 125.699C498.36 125.125 498.09 124.555 497.865 123.968C497.636 123.371 497.206 123.134 496.6 123.131C495.802 123.128 495.003 123.153 494.207 123.111C493.217 123.058 492.594 122.54 492.561 121.557C492.499 119.719 492.361 117.88 492.841 116.049C494.026 111.525 498.121 108.664 502.507 108.623C507.966 108.572 513.427 108.606 518.886 108.605C521.028 108.604 523.17 108.623 525.312 108.606C529.512 108.572 534.586 111.64 535.496 116.911C535.716 118.186 535.915 119.484 535.919 120.772C535.953 131.398 535.941 142.024 535.938 152.649C535.937 155.346 535.68 155.604 532.985 155.606C520.008 155.618 507.03 155.623 494.053 155.628C493.549 155.628 493.041 155.643 492.543 155.588C491.445 155.465 491.011 154.979 490.953 153.857C490.931 153.438 490.941 153.017 490.936 152.476ZM533.69 142.293C533.692 135.026 533.734 127.758 533.664 120.49C533.65 118.959 533.519 117.304 532.927 115.927C531.562 112.752 529.032 110.853 525.484 110.82C517.839 110.75 510.192 110.763 502.547 110.827C499.625 110.851 497.322 112.169 495.737 114.687C494.633 116.441 494.757 118.377 494.806 120.306C494.819 120.815 495.19 121.029 495.662 121.045C496.249 121.066 496.838 121.074 497.425 121.063C498.457 121.044 499.209 121.449 499.61 122.433C499.8 122.9 500.016 123.355 500.201 123.824C500.48 124.534 500.984 124.869 501.751 124.867C503.726 124.863 505.7 124.865 507.674 124.896C508.545 124.909 509.098 124.542 509.416 123.737C509.631 123.191 509.904 122.667 510.164 122.14C510.511 121.436 511.055 121.082 511.871 121.085C514.769 121.095 517.668 121.045 520.566 121.075C522.478 121.094 523.206 121.873 523.216 123.803C523.231 126.407 523.221 129.012 523.22 131.616C523.219 135.019 523.224 138.422 523.211 141.825C523.202 144.129 522.361 146.075 520.661 147.649C518.989 149.197 516.965 149.728 514.754 149.728C509.125 149.727 503.496 149.72 497.866 149.717C496.732 149.716 495.598 149.71 494.464 149.727C493.366 149.743 493.204 149.901 493.165 150.949C493.148 151.411 493.146 151.874 493.17 152.335C493.218 153.312 493.394 153.497 494.387 153.52C495.437 153.543 496.488 153.515 497.538 153.516C509.049 153.521 520.559 153.529 532.07 153.533C533.594 153.534 533.699 153.426 533.699 151.872C533.699 148.763 533.693 145.654 533.69 142.293ZM507.812 145.01C509.426 144.133 510.757 142.963 511.714 141.369C512.796 139.567 512.479 137.547 512.67 135.607C512.719 135.107 512.355 134.856 511.878 134.812C511.587 134.785 511.292 134.786 510.999 134.786C505.673 134.786 500.348 134.787 495.022 134.789C494.729 134.789 494.435 134.794 494.142 134.8C493.532 134.813 493.209 135.112 493.218 135.736C493.226 136.281 493.247 136.826 493.244 137.371C493.228 140.454 494.632 142.796 497.167 144.398C500.496 146.502 504.035 146.583 507.812 145.01Z" fill="var(--fill-0, #697284)"/>
<path id="Vector_5" d="M116.957 71.7396C115.277 71.7353 113.719 71.6587 112.17 71.7467C110.451 71.8443 108.34 70.1862 108.331 68.0058C108.31 63.4273 108.331 58.8485 108.342 54.2698C108.347 52.356 109.897 50.2262 112.39 50.3579C114.024 50.4443 115.666 50.3712 117.304 50.3653C118.799 50.3599 118.903 50.2563 118.894 48.8216C118.831 39.739 113.254 32.3389 104.442 29.5949C102.418 28.9646 100.329 28.5635 98.2483 28.6099C95.7413 28.6658 93.2408 29.0714 90.8634 30.022C86.2529 31.8655 82.6478 34.8678 80.1804 39.1876C78.4077 42.2912 77.658 45.6594 77.7504 49.2208C77.7751 50.1701 77.9644 50.3532 78.9919 50.3666C80.6719 50.3884 82.3526 50.3591 84.0327 50.3775C86.6655 50.4062 88.082 51.7906 88.0997 54.4295C88.1296 58.882 88.1064 63.3349 88.1152 67.7876C88.1178 69.0805 87.715 70.1678 86.6729 70.9922C86.0563 71.48 85.3948 71.757 84.5942 71.7534C82.1158 71.7426 79.6373 71.7723 77.159 71.7616C75.8536 71.7559 75.52 71.4209 75.4827 70.1172C75.4598 69.32 75.5031 68.5211 75.4975 67.7232C75.489 66.5249 75.3259 66.3711 74.0932 66.3516C73.5892 66.3437 73.0832 66.3722 72.5815 66.3369C71.0148 66.2268 70.309 65.4929 70.298 63.9284C70.283 61.7862 70.2979 59.6437 70.3061 57.5014C70.3072 57.2083 70.3094 56.908 70.3707 56.6239C70.5944 55.5879 71.1286 55.1121 72.1988 55.0464C72.8679 55.0054 73.5422 55.0561 74.214 55.05C75.2741 55.0402 75.4708 54.8428 75.4837 53.812C75.5073 51.9222 75.5104 50.0319 75.5575 48.1427C75.7186 41.6738 78.4091 36.4029 83.2185 32.1685C86.1739 29.5665 89.5967 27.8236 93.4304 26.943C96.9677 26.1305 100.493 26.2176 104.016 27.1724C107.101 28.0083 109.932 29.317 112.43 31.3058C116.03 34.1715 118.699 37.7048 120.109 42.1356C120.881 44.5616 121.234 47.0338 121.149 49.5777C121.102 50.9627 121.093 52.3499 121.106 53.7357C121.116 54.7887 121.321 54.9693 122.372 55.0068C122.75 55.0203 123.129 54.9972 123.506 55.0244C124.905 55.1253 125.797 55.9338 125.842 57.3411C125.907 59.397 125.912 61.4591 125.831 63.5142C125.762 65.2915 124.858 66.1166 123.034 66.3048C121.111 66.5032 121.112 66.5032 121.121 68.4495C121.123 68.9116 121.129 69.374 121.114 69.8356C121.066 71.2935 120.647 71.7192 119.224 71.7437C118.51 71.756 117.796 71.742 116.957 71.7396ZM72.8252 57.1888C72.8252 57.1888 72.7976 57.1748 72.6367 57.2808C72.5696 57.4302 72.4456 57.5791 72.4441 57.7292C72.4252 59.6031 72.4097 61.4773 72.4362 63.3508C72.4397 63.5934 72.6842 63.8326 72.9946 64.1707C73.6139 64.1622 74.2332 64.1537 75.0311 64.1441C75.1889 63.9697 75.4802 63.7984 75.4843 63.6205C75.53 61.6302 75.5656 59.6382 75.5248 57.6482C75.5118 57.0156 75.229 56.9228 74.1969 56.9957C74.0733 57.0087 73.9497 57.0217 73.7083 56.9453C73.4065 57.0193 73.1048 57.0933 72.8252 57.1888ZM110.581 60.8749C110.577 62.8049 110.572 64.7349 110.571 66.6649C110.571 67.1262 110.552 67.5914 110.602 68.0481C110.729 69.2019 111.357 69.764 112.526 69.7602C114.246 69.7547 115.966 69.7319 117.685 69.6952C118.762 69.6722 118.968 69.4978 118.971 68.4563C118.983 63.5474 118.978 58.6385 118.961 53.7296C118.958 52.6827 118.742 52.4633 117.706 52.446C116.028 52.4179 114.349 52.4276 112.671 52.4459C111.072 52.4634 110.587 52.9595 110.578 54.5811C110.567 56.5949 110.578 58.6089 110.581 60.8749ZM77.6076 53.4102C77.6114 58.3645 77.6237 63.3189 77.6133 68.2733C77.6106 69.5696 77.7403 69.7644 78.9997 69.7816C80.6376 69.8039 82.2762 69.8193 83.9138 69.7932C85.3488 69.7704 85.8794 69.2455 85.9288 67.799C85.9703 66.5823 85.9412 65.3632 85.9407 64.1451C85.9393 60.9107 85.9537 57.6763 85.9262 54.4422C85.9137 52.9757 85.3848 52.4616 83.9465 52.4445C82.2666 52.4246 80.5863 52.4427 78.9061 52.4472C78.3422 52.4487 77.7874 52.4746 77.6076 53.4102ZM123.779 63.2773C123.781 61.6875 123.797 60.0976 123.783 58.508C123.77 57.1609 123.488 56.9141 122.131 56.9732C121.3 57.0094 121.024 57.2046 121.007 57.985C120.97 59.7413 120.981 61.4992 121.005 63.2559C121.009 63.5225 121.133 63.9657 121.299 64.0184C121.798 64.1768 122.344 64.2196 122.874 64.2363C123.344 64.2511 123.654 63.9801 123.779 63.2773Z" fill="var(--fill-0, #697284)"/>
<path id="Vector_6" d="M473.427 250.757C470.49 251.449 467.635 251.779 464.717 251.367C460.488 250.77 456.581 249.402 453.135 246.809C449.544 244.109 447.009 240.643 445.426 236.453C444.132 233.027 444.071 229.483 444.375 225.903C444.418 225.406 444.554 224.91 444.698 224.429C445.007 223.395 444.766 222.597 443.945 221.846C442.431 220.461 441.31 218.774 440.823 216.763C439.726 212.225 441.162 207.653 445.465 205.31C449.701 203.004 453.977 203.492 457.704 206.757C458.584 207.528 459.29 207.649 460.4 207.25C464.152 205.898 468.025 205.69 471.934 206.493C473.077 206.727 474.22 207.021 475.315 207.422C476.142 207.726 476.756 207.614 477.369 207.019C478.818 205.613 480.561 204.731 482.499 204.197C486.944 202.973 493.269 205.251 494.783 211.089C495.904 215.41 494.776 219.061 491.451 221.983C490.609 222.723 490.37 223.374 490.593 224.472C491.921 230.997 490.661 236.972 486.592 242.303C483.249 246.684 478.849 249.42 473.427 250.757ZM486.501 239.058C490.213 232.176 489.85 225.277 486.157 218.604C481.642 210.447 471.45 206.658 463.259 208.622C458.07 209.866 453.756 212.377 450.513 216.606C446.632 221.667 445.327 227.417 446.696 233.611C447.877 238.957 450.909 243.162 455.554 246.144C457.809 247.591 460.273 248.462 462.882 249.055C466.627 249.908 470.327 249.724 473.956 248.664C479.28 247.11 483.491 243.994 486.501 239.058ZM490.684 208.173C489.912 207.676 489.189 207.07 488.36 206.703C485.001 205.218 481.964 206.111 479.134 208.133C478.57 208.535 478.63 208.935 479.24 209.29C479.675 209.542 480.156 209.724 480.562 210.013C481.272 210.517 481.888 210.525 482.627 210.006C483.82 209.167 485.196 209.006 486.608 209.291C488.519 209.676 489.84 211.231 489.982 213.175C490.081 214.539 489.695 215.736 488.855 216.813C488.609 217.129 488.234 217.593 488.316 217.871C488.615 218.881 488.931 219.922 489.655 220.744C493.352 218.255 494.592 212.064 490.684 208.173ZM443.334 210.342C441.575 213.952 442.96 218.873 445.871 220.487C446.162 219.949 446.431 219.397 446.75 218.875C447.298 217.979 447.229 217.244 446.558 216.363C445.234 214.625 445.427 212.191 446.848 210.553C448.122 209.083 450.543 208.58 452.358 209.682C453.599 210.435 454.573 210.473 455.633 209.542C455.756 209.434 455.931 209.389 456.072 209.3C456.797 208.848 456.834 208.488 456.147 207.982C451.318 204.424 445.9 205.884 443.334 210.342ZM487.093 215.597C488.018 214.612 488.224 213.237 487.608 212.16C486.969 211.043 485.222 210.66 484.187 211.403C483.734 211.729 483.577 212.149 483.969 212.571C484.929 213.606 485.935 214.599 487.093 215.597ZM448.884 215.349C449.792 214.422 450.713 213.505 451.605 212.562C452.07 212.072 451.98 211.699 451.378 211.371C449.851 210.539 448.022 211.425 447.71 213.148C447.542 214.08 447.97 215.042 448.884 215.349Z" fill="var(--fill-0, #697284)"/>
<path id="Vector_7" d="M51.6113 129.473C51.6183 130.248 51.6142 130.922 51.6883 131.587C51.9995 134.38 52.3384 137.171 52.6588 139.963C52.9841 142.799 53.2647 145.64 53.6362 148.47C53.7852 149.604 53.5359 150.524 52.7667 151.359C51.5722 152.654 50.4322 154 49.2311 155.29C48.3681 156.216 47.5842 156.098 47.1298 154.908C46.3964 152.989 45.7677 151.029 45.108 149.082C44.0449 145.944 43.0012 142.799 41.9251 139.666C41.7876 139.265 41.5045 138.915 41.2395 138.456C40.8727 138.739 40.6297 138.891 40.4285 139.087C38.0485 141.397 35.6963 143.737 33.2868 146.016C32.5313 146.731 32.2869 147.473 32.4533 148.486C32.6703 149.807 32.7501 151.151 32.9033 152.483C32.9799 153.148 33.029 153.826 33.1968 154.47C33.4446 155.422 33.2357 156.192 32.56 156.891C31.8594 157.615 31.2223 158.401 30.5125 159.115C29.5918 160.041 28.7775 159.934 28.2577 158.726C27.562 157.11 26.9981 155.437 26.3837 153.785C25.7985 152.213 25.1995 150.645 24.648 149.06C24.2951 148.046 23.7054 147.374 22.6544 146.982C20.0593 146.015 17.5084 144.93 14.9295 143.918C12.857 143.105 12.6955 142.351 14.3043 140.808C14.8195 140.314 15.3337 139.819 15.8394 139.315C16.9219 138.237 17.3708 138.149 18.7494 138.707C20.3052 139.336 21.878 139.924 23.4252 140.573C24.3947 140.98 25.1416 140.865 25.8996 140.059C28.0852 137.733 30.3389 135.472 32.5651 133.186C32.7701 132.975 32.9787 132.767 33.1708 132.545C33.7489 131.877 33.6959 131.581 32.8737 131.259C31.3893 130.676 29.8885 130.135 28.3984 129.566C25.2223 128.354 22.0465 127.141 18.8761 125.914C18.3695 125.718 17.8568 125.5 17.4085 125.2C16.6055 124.662 16.456 123.848 17.1188 123.16C18.3989 121.83 19.7386 120.555 21.0981 119.306C21.8279 118.636 22.7433 118.83 23.6228 118.976C25.5226 119.291 27.4242 119.594 29.325 119.903C30.6481 120.118 31.9727 120.325 33.2936 120.553C36.2708 121.066 39.2505 121.566 42.2196 122.123C43.1759 122.302 43.9186 122.096 44.6323 121.438C46.5757 119.644 48.555 117.889 50.5287 116.128C51.2177 115.514 51.9264 114.921 52.6361 114.33C53.7419 113.409 54.9928 112.944 56.4592 112.975C58.8575 113.026 60.7118 114.73 60.833 117.123C60.9053 118.553 60.6081 119.847 59.5412 120.932C57.1871 123.326 54.8799 125.767 52.565 128.2C52.2235 128.559 51.9441 128.977 51.6113 129.473ZM32.9435 135.663C32.2208 136.424 31.4971 137.184 30.7755 137.946C29.3904 139.409 27.9893 140.857 26.6293 142.343C25.9637 143.07 25.2406 143.389 24.278 143.028C23.1403 142.601 21.9919 142.202 20.8558 141.771C19.9935 141.444 19.1555 141.049 18.2836 140.752C17.6543 140.537 16.5813 141.103 16.4428 141.719C16.2629 142.521 17.0526 142.471 17.4613 142.75C17.5293 142.796 17.6139 142.819 17.6922 142.849C19.7673 143.649 21.825 144.498 23.9243 145.228C25.2485 145.688 25.9603 146.577 26.4088 147.847C27.3172 150.419 28.2885 152.968 29.2519 155.52C29.3887 155.883 29.6263 156.207 29.8459 156.601C30.9296 155.999 31.2111 155.188 31.1031 154.195C30.8805 152.152 30.7354 150.094 30.3833 148.072C30.1469 146.715 30.4791 145.754 31.4779 144.832C33.8223 142.669 36.0944 140.428 38.3942 138.217C39.0598 137.577 39.6921 136.899 40.389 136.295C41.4197 135.402 42.4246 135.623 43.0467 136.85C43.2541 137.259 43.404 137.701 43.5526 138.136C45.0284 142.465 46.4924 146.797 47.9788 151.121C48.1334 151.571 48.4111 151.978 48.7389 152.613C49.5139 151.869 50.1021 151.233 50.765 150.688C51.3852 150.178 51.5974 149.581 51.5126 148.808C51.2701 146.598 51.0645 144.384 50.8165 142.175C50.5591 139.882 50.2612 137.593 49.996 135.3C49.7984 133.593 49.6477 131.88 49.4324 130.175C49.2824 128.986 49.6819 128.08 50.5424 127.259C52.2429 125.637 53.9001 123.968 55.5382 122.282C56.5022 121.291 57.438 120.264 58.3065 119.189C58.9997 118.331 59.0411 117.324 58.5172 116.347C58.0366 115.45 57.248 115.088 56.2323 115.064C55.2866 115.042 54.5051 115.378 53.8114 115.957C52.9096 116.71 52.0215 117.48 51.151 118.269C49.3468 119.904 47.5455 121.542 45.7682 123.206C44.8035 124.109 43.7122 124.437 42.4151 124.208C40.9283 123.945 39.4327 123.733 37.9431 123.486C33.1403 122.689 28.3392 121.881 23.5348 121.093C23.1741 121.034 22.7067 120.971 22.4345 121.142C21.3414 121.828 20.404 122.702 19.5502 123.869C19.9482 124.093 20.208 124.285 20.499 124.396C23.2453 125.438 25.9998 126.458 28.7461 127.5C30.904 128.319 33.074 129.111 35.2001 130.006C36.7343 130.652 36.8648 131.478 35.7432 132.694C34.8611 133.65 33.9525 134.582 32.9435 135.663Z" fill="var(--fill-0, #697284)"/>
<path id="Vector_8" d="M114.118 198.273C117.838 199.201 121.039 200.809 123.633 203.575C126.777 206.926 128.327 210.895 128.341 215.442C128.355 219.723 128.207 224.004 128.164 228.286C128.143 230.334 127.496 232.152 126.326 233.802C125.056 235.592 123.369 236.781 121.186 237.137C119.866 237.353 118.525 237.554 117.193 237.562C109.719 237.605 102.245 237.579 94.7716 237.593C91.7773 237.599 89.1729 236.715 87.0835 234.476C85.5594 232.842 85.0124 230.836 84.8987 228.714C84.7978 226.832 84.9082 224.937 84.9418 223.049C84.991 220.279 85.0893 217.509 85.1001 214.739C85.1071 212.929 84.5614 211.279 83.4206 209.833C82.3317 208.453 80.9378 207.748 79.1837 207.728C78.6814 207.722 78.1688 207.733 77.68 207.638C76.9307 207.492 76.4706 206.994 76.5587 206.492C76.6731 205.84 77.177 205.62 77.7525 205.571C81.2431 205.273 83.6436 206.13 85.8015 209.357C86.8754 210.964 87.3046 212.805 87.3615 214.727C87.3875 215.608 87.3372 216.492 87.3801 217.371C87.4178 218.145 87.618 218.315 88.3708 218.389C88.5789 218.41 88.7903 218.399 89.0002 218.399C94.5426 218.401 100.085 218.403 105.627 218.404C105.879 218.404 106.132 218.413 106.383 218.393C107.29 218.319 107.492 218.132 107.486 217.232C107.454 212.488 107.402 207.745 107.367 203.001C107.359 201.868 107.334 200.731 107.416 199.603C107.51 198.325 107.873 197.909 109.135 197.914C110.763 197.921 112.39 198.124 114.118 198.273ZM87.1021 225.728C87.1863 227.275 87.1278 228.848 87.388 230.365C87.7834 232.671 89.3151 234.173 91.4722 234.913C92.5233 235.274 93.6952 235.418 94.8137 235.424C102.121 235.467 109.429 235.452 116.737 235.435C117.869 235.433 119.01 235.393 120.131 235.247C123.394 234.824 125.844 232.071 125.904 228.79C125.941 226.733 125.919 224.674 125.92 222.616C125.92 220.555 125.918 220.546 123.819 220.544C113.571 220.536 103.323 220.532 93.0753 220.528C91.5213 220.528 89.9669 220.514 88.4135 220.547C87.3655 220.569 87.1674 220.786 87.1443 221.822C87.1171 223.04 87.1166 224.258 87.1021 225.728ZM124.857 218.398C125.967 218.247 126.043 218.205 126.1 217.383C126.36 213.647 125.795 210.116 123.577 206.969C122.514 205.461 122.49 205.412 121.24 206.778C117.957 210.364 114.695 213.969 111.435 217.576C111.289 217.738 111.242 217.99 111.061 218.398C115.689 218.398 120.151 218.398 124.857 218.398ZM119.397 205.73C119.506 205.603 119.615 205.475 119.726 205.349C120.958 203.955 120.931 203.745 119.383 202.705C119.278 202.635 119.171 202.568 119.064 202.502C116.699 201.049 114.153 200.187 111.364 200.033C109.82 199.949 109.624 200.094 109.671 201.681C109.713 203.106 109.791 204.532 109.781 205.957C109.76 208.977 109.687 211.996 109.652 215.016C109.648 215.309 109.762 215.603 109.822 215.896C110.062 215.846 110.174 215.858 110.219 215.809C113.242 212.497 116.261 209.181 119.397 205.73Z" fill="var(--fill-0, #697284)"/>
<path id="Vector_9" d="M450.953 137.182C435.413 137.197 419.999 137.222 404.585 137.225C390.683 137.227 376.781 137.204 362.88 137.19C362.461 137.19 362.006 137.258 361.633 137.118C361.346 137.011 361.039 136.659 360.963 136.359C360.856 135.936 361.214 135.663 361.623 135.598C362.035 135.531 362.459 135.513 362.877 135.512C374.637 135.481 386.397 135.443 398.157 135.43C413.11 135.413 428.062 135.403 443.014 135.417C452.128 135.425 461.242 135.484 470.356 135.523C470.775 135.525 471.222 135.472 471.605 135.597C471.909 135.697 472.296 135.995 472.362 136.272C472.475 136.751 472.06 137.025 471.614 137.103C471.245 137.168 470.861 137.162 470.484 137.162C464.016 137.171 457.548 137.176 450.953 137.182Z" fill="var(--fill-0, #697284)"/>
<path id="Vector_10" d="M90.2411 136.985C85.9578 136.987 81.8005 136.991 77.6431 136.99C77.2663 136.99 76.8482 137.05 76.5246 136.909C76.2261 136.779 75.837 136.418 75.8349 136.156C75.8323 135.814 76.1041 135.388 76.3864 135.153C76.606 134.971 77.0221 134.983 77.3513 134.98C82.3467 134.941 87.3423 134.887 92.3377 134.891C98.1711 134.895 104.004 134.972 109.838 134.981C119.663 134.997 129.488 134.977 139.313 134.985C150.565 134.995 161.818 135.019 173.071 135.037C177.27 135.043 181.469 135.049 185.668 135.06C185.993 135.06 190.1 135.1 190.479 135.125C190.541 135.461 190.62 135.738 190.639 136.018C190.679 136.623 190.44 136.96 189.768 136.949C188.761 136.932 183.971 136.978 182.964 136.978C165.452 136.981 147.941 136.982 130.429 136.983C117.075 136.984 103.721 136.985 90.2411 136.985ZM86.0819 135.56C85.494 135.563 84.9061 135.567 84.3183 135.567C82.1346 135.568 79.951 135.557 77.7675 135.576C77.3149 135.58 76.7521 135.405 76.4372 136.116C76.7029 136.217 76.919 136.371 77.1352 136.371C109.575 136.41 142.016 136.448 174.454 136.036C145.082 135.59 115.708 135.56 86.0819 135.56Z" fill="var(--fill-0, #697284)"/>
<path id="Vector_11" d="M417.099 201.83C418.509 202.593 419.839 203.309 421.162 204.038C421.491 204.22 421.815 204.422 422.112 204.651C422.44 204.904 422.588 205.247 422.373 205.649C422.144 206.078 421.768 206.228 421.311 206.081C421.034 205.992 420.773 205.846 420.515 205.708C417.443 204.067 414.374 202.421 411.303 200.78C406.418 198.169 401.529 195.567 396.647 192.95C390.805 189.818 384.972 186.67 379.131 183.537C374.805 181.216 370.466 178.922 366.148 176.588C364.709 175.81 363.314 174.953 361.91 174.115C361.626 173.945 361.361 173.723 361.137 173.479C360.796 173.108 360.646 172.676 361.045 172.246C361.399 171.864 361.788 171.978 362.187 172.205C362.952 172.64 363.724 173.061 364.498 173.48C371.73 177.394 378.958 181.316 386.198 185.216C391.443 188.042 396.707 190.83 401.955 193.651C406.981 196.352 411.996 199.075 417.099 201.83Z" fill="var(--fill-0, #697284)"/>
<path id="Vector_12" d="M148.025 71.1317C153.69 74.0902 159.269 77.0094 164.852 79.9208C169.206 82.1915 173.569 84.4461 177.923 86.7195C184.769 90.2946 191.61 93.8783 198.45 97.4648C198.745 97.6194 199.032 97.8094 199.277 98.0336C199.613 98.3422 199.757 98.7428 199.488 99.165C199.211 99.5991 198.809 99.6018 198.382 99.3907C197.291 98.8513 196.19 98.3299 195.111 97.7677C188.857 94.51 182.606 91.2465 176.358 87.9773C170.259 84.7862 164.17 81.576 158.067 78.3926C152.113 75.2867 146.146 72.2044 140.186 69.1104C139.553 68.7817 138.915 68.4599 138.298 68.1032C138.011 67.9376 137.748 67.7168 137.51 67.4839C137.151 67.1317 137.195 66.7205 137.463 66.3394C137.717 65.9775 138.089 65.9173 138.47 66.101C139.492 66.5924 140.516 67.0806 141.516 67.613C143.665 68.7573 145.801 69.9287 148.025 71.1317Z" fill="var(--fill-0, #697284)"/>
<path id="Vector_13" d="M375.009 92.8399C371.233 94.8722 367.532 96.8503 363.839 98.8435C363.399 99.0813 363.017 99.4262 362.582 99.677C362.025 99.9984 361.492 99.9104 361.247 99.4761C360.977 98.9968 361.125 98.5598 361.522 98.2451C361.947 97.9086 362.404 97.5999 362.881 97.3422C370.929 92.9927 378.982 88.653 387.034 84.3116C394.68 80.1889 402.314 76.0424 409.979 71.9551C413.57 70.0404 417.221 68.2395 420.847 66.3896C421.07 66.2756 421.317 66.0822 421.532 66.1073C421.828 66.1421 422.225 66.2793 422.355 66.5029C422.485 66.7249 422.456 67.2204 422.288 67.3974C421.952 67.7507 421.493 68.0041 421.051 68.2356C418.152 69.7549 415.231 71.2335 412.342 72.7704C406.97 75.6276 401.613 78.5139 396.252 81.3913C389.524 85.0022 382.798 88.6159 376.071 92.2301C375.739 92.4086 375.415 92.6031 375.009 92.8399Z" fill="var(--fill-0, #697284)"/>
<path id="Vector_14" d="M139.192 204.696C142.775 202.688 146.291 200.723 149.815 198.775C155.361 195.71 160.911 192.653 166.462 189.6C171.903 186.608 177.338 183.604 182.795 180.641C187.477 178.099 192.182 175.597 196.888 173.1C197.701 172.668 198.563 172.326 199.419 171.981C199.813 171.823 200.279 171.741 200.549 172.193C200.85 172.694 200.558 173.079 200.164 173.376C199.864 173.602 199.542 173.807 199.21 173.982C194.908 176.254 190.58 178.478 186.302 180.796C180.844 183.752 175.433 186.796 169.989 189.778C164.765 192.639 159.52 195.462 154.293 198.317C150.097 200.609 145.916 202.927 141.723 205.225C141.172 205.528 140.591 205.774 140.029 206.056C139.542 206.3 139.047 206.443 138.694 205.893C138.354 205.364 138.756 205.044 139.192 204.696Z" fill="var(--fill-0, #697284)"/>
<path id="Vector_15" d="M91.5584 242.791C92.8425 240.909 94.5977 240.13 96.7095 240.447C99.1003 240.805 100.585 242.359 101.271 244.621C101.856 246.551 100.478 249.324 98.5991 250.42C95.796 252.055 91.8554 250.854 90.7258 247.168C90.269 245.678 90.5349 244.171 91.5584 242.791ZM92.9519 244.451C92.8848 244.903 92.7599 245.355 92.7604 245.807C92.7627 247.987 94.458 249.37 96.6051 248.974C97.7934 248.754 98.9032 247.649 99.1292 246.461C99.4037 245.016 98.8029 243.679 97.5421 242.927C96.3968 242.244 95.0445 242.302 94.023 243.146C93.6439 243.458 93.3644 243.892 92.9519 244.451Z" fill="var(--fill-0, #697284)"/>
<path id="Vector_16" d="M112.489 247.727C110.965 244.911 113.44 240.304 117.532 240.382C120.302 240.435 122.165 242.15 122.742 244.522C123.369 247.104 121.904 249.613 119.529 250.684C116.928 251.857 113.686 250.543 112.489 247.727ZM120.216 243.962C119.056 242.001 116.608 242.114 115.321 243.3C114.338 244.207 113.948 245.538 114.374 246.728C114.902 248.203 115.946 249.013 117.338 249.026C118.81 249.041 119.972 248.286 120.457 246.93C120.793 245.991 120.806 245.039 120.216 243.962Z" fill="var(--fill-0, #697284)"/>
<path id="Vector_17" d="M190.833 136.964C190.082 136.956 189.452 136.98 188.828 136.933C188.244 136.89 187.94 136.493 188 135.913C188.053 135.399 188.276 135.073 188.878 135.076C191.515 135.09 194.151 135.069 196.788 135.084C197.598 135.088 198.115 135.55 198.072 136.138C198.034 136.658 197.587 136.971 196.732 136.977C194.807 136.991 192.882 136.971 190.833 136.964Z" fill="var(--fill-0, #697284)"/>
<g id="Vector_18">
</g>
<g id="Vector_19">
</g>
<g id="Vector_20">
</g>
<g id="Vector_21">
</g>
<g id="Vector_22">
</g>
<g id="Vector_23">
</g>
<g id="Vector_24">
</g>
<g id="Vector_25">
</g>
<g id="Vector_26">
</g>
<g id="Vector_27">
</g>
<g id="Vector_28">
</g>
<g id="Vector_29">
</g>
<g id="Vector_30">
</g>
<g id="Vector_31">
</g>
<g id="Vector_32">
</g>
<g id="Vector_33">
</g>
<g id="Vector_34">
</g>
<g id="Vector_35">
</g>
<g id="Vector_36">
</g>
<g id="Vector_37">
</g>
<g id="Vector_38">
</g>
<g id="Vector_39">
</g>
<path id="Vector_40" d="M86.2079 135.56C115.708 135.56 145.082 135.59 174.454 136.036C142.016 136.448 109.575 136.41 77.1352 136.371C76.919 136.371 76.7029 136.217 76.4371 136.116C76.7521 135.405 77.3149 135.58 77.7675 135.576C79.9509 135.557 82.1346 135.568 84.3182 135.567C84.9061 135.567 85.494 135.563 86.2079 135.56Z" fill="var(--fill-0, #697284)"/>
<g id="Vector_41">
</g>
<g id="Vector_42">
</g>
<path id="Vector_43" d="M288.995 88.9023C279.771 88.8972 270.658 88.8915 261.545 88.8855C261.167 88.8852 260.788 88.8962 260.411 88.8776C259.003 88.8084 258.453 88.0011 258.949 86.6755C259.862 84.2379 261.277 82.127 263.191 80.3602C265.531 78.2001 268.28 76.7237 271.386 76.1629C277.286 75.0972 282.538 76.4464 286.855 80.8237C288.51 82.5022 289.685 84.4588 290.508 86.6416C291.009 87.9686 290.567 88.6498 288.995 88.9023ZM273.37 86.7472C277.906 86.7549 282.442 86.7664 286.978 86.7629C287.322 86.7627 287.666 86.6568 288.045 86.5941C285.923 81.1229 280.264 77.3829 273.675 77.8986C268.391 78.3121 261.9 82.9471 261.596 86.5391C261.693 86.5913 261.799 86.698 261.905 86.6987C265.643 86.721 269.38 86.7333 273.37 86.7472Z" fill="var(--fill-0, #008941)"/>
<path id="Vector_44" d="M298.881 96.104C300.615 97.523 301.113 99.2781 300.383 101.181C299.718 102.917 297.939 104.085 295.982 103.843C293.405 103.524 292.096 101.959 291.986 99.4821C291.892 97.3796 293.896 95.4357 296.068 95.317C297.074 95.262 297.97 95.5172 298.881 96.104ZM298.342 100.789C298.444 100.561 298.588 100.342 298.641 100.103C298.918 98.8373 298.015 97.5514 296.722 97.3415C295.409 97.1285 294.189 98.053 294.043 99.3718C293.905 100.616 294.986 101.828 296.288 101.885C297.101 101.921 297.75 101.608 298.342 100.789Z" fill="var(--fill-0, #008941)"/>
<path id="Vector_45" d="M257.313 96.8443C258.452 98.292 258.719 99.8144 257.936 101.386C257.152 102.958 255.876 103.887 254.027 103.876C252.295 103.866 250.529 102.617 249.993 100.984C249.423 99.2477 250 97.2014 251.34 96.2085C252.872 95.0727 254.894 94.9954 256.402 96.0352C256.71 96.2477 256.973 96.526 257.313 96.8443ZM253.21 97.4736C252.973 97.6436 252.71 97.7867 252.504 97.9882C251.499 98.972 251.492 100.183 252.467 101.2C253.291 102.059 254.643 102.14 255.523 101.383C256.518 100.527 256.624 99.1707 255.759 98.1472C255.133 97.4056 254.334 97.1656 253.21 97.4736Z" fill="var(--fill-0, #008941)"/>
<path id="Vector_46" d="M472.321 49.4748C473.664 51.4836 473.071 53.4972 471.008 54.2187C469.814 54.6365 468.56 54.265 467.738 53.25C466.937 52.2613 466.87 51.0283 467.558 49.9706C468.259 48.8927 469.541 48.2988 470.703 48.6252C471.251 48.779 471.741 49.1389 472.321 49.4748ZM469.4 51.328C469.504 51.5845 469.539 51.9537 469.729 52.0689C469.964 52.2119 470.368 52.2429 470.622 52.137C470.821 52.054 471.05 51.651 471 51.4586C470.931 51.1919 470.655 50.9066 470.394 50.7789C470.016 50.5943 469.672 50.7813 469.4 51.328Z" fill="var(--fill-0, #697284)"/>
<path id="Vector_47" d="M506.627 119.638C506.302 119.56 506.021 119.528 505.851 119.374C505.253 118.833 505.248 116.283 505.814 115.692C506.292 115.193 507.133 115.267 507.376 115.942C507.749 116.975 507.76 118.077 507.395 119.129C507.32 119.347 506.953 119.465 506.627 119.638Z" fill="var(--fill-0, #697284)"/>
<path id="Vector_48" d="M502.229 115.553C503.403 115.62 503.561 115.73 503.61 116.619C503.647 117.285 503.63 117.958 503.591 118.625C503.558 119.19 503.266 119.598 502.655 119.591C502.077 119.584 501.695 119.237 501.661 118.661C501.615 117.87 501.612 117.072 501.672 116.283C501.69 116.041 501.972 115.819 502.229 115.553Z" fill="var(--fill-0, #697284)"/>
<path id="Vector_49" d="M472.639 245.021C470.484 245.778 468.349 245.895 466.206 245.71C462.219 245.368 458.791 243.79 456.364 240.557C453.645 236.935 453.984 232.201 456.933 229.121C460.873 225.007 465.686 223.639 471.179 224.873C474.234 225.56 476.82 227.159 478.848 229.63C481.131 232.413 481.446 236.432 479.463 239.761C477.905 242.377 475.489 243.906 472.639 245.021ZM478.249 232.036C477.784 231.392 477.377 230.695 476.844 230.113C472.328 225.185 463.518 224.865 458.498 229.981C457.55 230.947 456.749 232.046 456.549 233.436C456.073 236.743 456.999 239.529 459.825 241.464C463.925 244.271 468.303 244.873 472.957 242.929C474.211 242.404 475.346 241.71 476.335 240.783C478.948 238.335 479.588 235.587 478.249 232.036Z" fill="var(--fill-0, #697284)"/>
<path id="Vector_50" d="M457.45 223.399C457.388 224.315 457.256 225.153 456.37 225.459C455.459 225.773 454.902 225.054 454.319 224.525C454.105 224.33 453.912 224.094 453.765 223.844C453.393 223.209 453.495 222.419 453.986 221.853C454.478 221.285 455.207 221.118 455.927 221.427C456.757 221.784 457.27 222.408 457.45 223.399Z" fill="var(--fill-0, #697284)"/>
<path id="Vector_51" d="M480.409 224.543C480.008 224.856 479.693 225.141 479.331 225.344C478.695 225.702 478.081 225.524 477.705 224.929C477.059 223.908 477.481 222.194 478.525 221.601C479.238 221.196 479.958 221.234 480.509 221.707C481.157 222.262 481.297 222.897 480.925 223.729C480.807 223.993 480.626 224.229 480.409 224.543Z" fill="var(--fill-0, #697284)"/>
<g id="Vector_52">
</g>
<g id="Vector_53">
</g>
<g id="Vector_54">
</g>
<g id="Vector_55">
</g>
<g id="Vector_56">
</g>
<path id="Vector_57" d="M468.746 236.05C468.755 236.791 468.72 237.427 468.798 238.048C468.903 238.877 469.31 239.209 470.133 239.278C471.555 239.398 472.395 238.565 473.052 237.467C473.309 237.037 473.474 236.552 473.715 236.111C473.934 235.713 474.263 235.447 474.749 235.642C475.204 235.824 475.341 236.212 475.285 236.671C474.952 239.4 471.856 242.063 468.972 241.05C468.112 240.747 467.364 240.768 466.547 241.107C464.119 242.117 460.511 239.867 460.124 236.711C460.062 236.209 460.224 235.759 460.756 235.618C461.36 235.457 461.669 235.842 461.902 236.348C462.179 236.953 462.43 237.589 462.816 238.122C463.479 239.036 464.419 239.453 465.568 239.277C466.289 239.167 466.738 238.784 466.816 238.066C466.893 237.361 466.862 236.642 466.848 235.93C466.835 235.297 466.318 235.024 465.9 234.675C464.745 233.713 464.515 232.417 465.251 231.204C465.907 230.122 466.935 229.878 468.082 229.972C469.215 230.065 470.136 230.601 470.497 231.7C470.861 232.808 470.635 233.864 469.694 234.673C469.285 235.024 468.78 235.304 468.746 236.05ZM467.547 233.526C467.827 233.472 468.178 233.503 468.369 233.343C468.625 233.128 468.96 232.709 468.896 232.479C468.808 232.161 468.421 231.828 468.087 231.699C467.553 231.492 466.891 231.835 466.736 232.302C466.537 232.902 466.894 233.233 467.547 233.526Z" fill="var(--fill-0, #697284)"/>
<g id="Vector_58">
</g>
</g>
</svg>
